<?xml version="1.0" encoding="UTF-8"?><svg id="Layer_1" xmlns="http://www.w3.org/2000/svg" viewBox="0 0 834.12 533.58"><defs><style>.cls-1{fill:#202a3e;}.cls-1,.cls-2,.cls-3{stroke-width:0px;}.cls-2{fill:#fff;}.cls-3{fill:#f16e00;}</style></defs><path class="cls-3" d="M263,144.43l-64.04-46.3c-6.62-4.8-12.4-7.14-18.3-7.04-5.92-.1-11.69,2.24-18.31,7.04l-64.04,46.3c-9.25,6.59-11.4,14.21-9.09,22.3,1.13,3.83,4.52,10.8,11.99,12.27v89.08c0,15.26,12.35,27.67,27.52,27.67h103.85c15.17,0,27.51-12.41,27.51-27.67v-89.08c7.48-1.47,10.87-8.44,12-12.27,2.31-8.09.16-15.71-9.09-22.3"/><path class="cls-1" d="M353.35,247.26c-5.65,10.63-17.44,15.94-31.9,15.94-4.65,0-9.97-.49-15.11-1.66v26.74c0,4.65-1.33,7.48-6.48,7.48h-5.98c-5.99,0-8.81-.83-8.81-7.48v-99.67c0-5.65,2.5-7.14,7.31-7.14h7.48c4.32,0,4.99,2.15,5.82,5.48,7.64-4.16,16.28-7.98,25.42-7.98,7.47,0,13.29,2,17.6,6.48,7.48,7.64,9.31,19.77,9.31,35.06,0,13.95-1.16,20.26-4.65,26.74M334.9,202.07c-.83-3.49-2.99-5.48-6.47-5.48-5.99,0-15.79,4.65-22.1,8.63v38.21c4.98,1.5,10.3,2.16,15.45,2.16,14.62,0,14.79-11.13,14.79-24.59,0-5.98-.83-15.28-1.67-18.94"/><path class="cls-1" d="M427.43,261.5h-9.3c-2.99,0-4.81-1.79-4.81-6.43-8.31,5.15-15.62,8.14-24.59,8.14-15.95,0-23.76-8.48-23.76-24.75,0-19.27,12.46-24.42,27.08-26.08,4.99-.5,12.13-1.5,21.1-1.33,0-4.65-.17-9.3-1.16-11.95-1-2.5-3.49-3.99-7.14-3.99-5.82,0-16.45,1.66-23.93,3.49-1,.17-1.99.5-2.98.5-3.65.33-5.82-1.16-5.82-5.32v-4.64c0-3.33.83-5.99,4.65-6.98,8.8-2.16,21.43-3.15,27.24-3.15,6.65,0,18.11,1,23.76,7.64,4.81,5.48,6.31,10.47,6.31,26.91v40.83c0,4.65-1.5,7.14-6.65,7.14M413.31,226c-2.83-.17-5.48-.33-8.14-.33-15.79,0-20.27,1.83-20.27,10.96,0,6.48,1.83,11.13,6.14,11.13,7.64,0,14.62-2.83,22.26-8.31v-13.46Z"/><path class="cls-1" d="M511.98,284.64c-5.65,8.47-16.61,12.46-30.56,12.46-10.8,0-24.09-1.32-31.07-3.15-3.65-1-4.98-3.99-4.98-7.64,0-2.49.16-5.31,1.16-7.64.83-1.99,1.99-3.16,4.33-3.16.83,0,2.82.49,4.15.83,7.64,1.83,17.28,3.32,27.57,3.32,7.64,0,10.3-2.49,11.13-7.64.5-3.32.5-7.14.5-10.97-6.98,1.33-13.3,2.16-19.27,2.16-22.1,0-30.73-12.3-30.73-39.87,0-15.12,2.83-26.75,8.97-33.89,7.31-8.47,14.95-10.46,32.89-10.46,7.47,0,13.46,0,22.75.66,5.32.34,6.65,2.49,6.65,7.48v81.57c0,8.14-.5,11.46-3.49,15.94M494.21,196.92c-4.16-.17-7.64-.34-13.13-.34-8.47,0-10.46,1.67-12.12,5.16-1.83,3.98-3.16,12.12-3.16,20.76,0,3.65.34,8.47,1,13.12,1.16,9.3,3.32,10.96,10.3,10.96,4.65,0,11.13-1,17.11-2.83v-46.84Z"/><path class="cls-1" d="M586.73,227.99h-40.53c-.17,8.31.33,14.79,5.48,17.11,2.32,1,5.98,1.83,9.97,1.83,7.31,0,14.12-1.33,20.26-2.66,1.83-.34,3.82-1.16,5.82-1.16,2.49,0,3.98,2.99,4.49,5.16.33,1.66.33,3.65.33,5.47,0,3.82-.84,6.48-5.98,7.31-8.14,1.5-17.94,2.16-25.08,2.16-12.46,0-21.43-2.66-26.91-7.8-6.98-6.48-9.31-17.28-9.31-33.72,0-14.62,1.49-24.42,6.65-31.73,4.98-7.14,14.12-10.97,28.74-10.97,13.79,0,22.09,3.49,26.91,10.3,5.15,7.48,6.15,17.94,6.15,28.57,0,9.14-1.16,10.13-6.98,10.13M573.44,210.22c0-10.3-1.5-14.62-12.79-14.62-11.96,0-14.45,4.15-14.45,16.28v1.49h27.24v-3.15Z"/><path class="cls-1" d="M634.06,263.04c-10.8,0-18.6-.5-23.76-1.16-3.49-.5-4.65-.66-4.65-7.64,0-3.16-.33-5.48,1-8.64.67-1.49,1.83-2,3.82-2,1.33,0,11.3,1.83,25.91,1.83,6.81,0,8.31-.83,8.31-6.14,0-2.66-.17-4.65-1-5.48-2.49-2.49-17.28-5.15-28.07-10.46-8.47-4.16-11.79-8.97-11.79-18.77,0-8.81,1.99-14.79,5.82-18.61,5.98-5.98,15.78-6.65,31.9-6.65,4.15,0,8.14,0,12.29.34,5.98.34,8.31,1.66,8.31,8.14,0,2.49,0,5.82-.66,7.14-1,1.99-2.33,3.16-5.48,3.16-3.65,0-10.47-1.33-21.93-1.33-8.31,0-9.63.34-9.63,6.48,0,1.66.17,2.49.83,3.32,1.83,2.33,15.78,5.99,20.93,7.64,12.95,4.32,19.1,8.63,19.1,23.25,0,20.27-7.47,25.58-31.23,25.58"/><path class="cls-2" d="M189.18,261.43h-8.85c-4.34,0-6.01-2.51-6.01-7.51v-42.74c0-7.17,0-11.68-1.17-13.18-.83-1-2.33-1.34-5.34-1.34-6.51,0-13.36,2.67-20.37,7.68v49.58c0,4.67-1.33,7.51-6.51,7.51h-8.84c-4.68,0-6.01-2.67-6.01-6.68v-100.99c0-5.67,2.5-7.18,7.35-7.18h7.51c5.18,0,6.51,4.01,6.51,7.18v30.88c5.51-2.67,13.52-5.68,22.54-5.68,20.53,0,25.71,12.85,25.71,23.7v51.25c0,4.67-1.33,7.51-6.51,7.51"/><path class="cls-2" d="M228.41,169.62h-6.34c-6.01,0-8.85-.84-8.85-7.51v-5.85c0-5.67,2.51-7.34,7.35-7.34h7.84c5.18,0,6.68,4.17,6.68,7.34v5.85c0,4.67-1.5,7.51-6.68,7.51M228.41,261.43h-6.34c-6.01,0-8.85-.83-8.85-7.51v-65.1c0-5.67,2.51-7.35,7.35-7.35h7.84c5.18,0,6.68,4.18,6.68,7.35v65.1c0,4.68-1.5,7.51-6.68,7.51"/><path class="cls-3" d="M143.82,372.68h-17.88v43.68c0,5.16-.86,13.07,6.53,13.07,4.99,0,9.97-2.58,14.1-2.58,1.72,0,1.72.69,1.72,2.24v6.53c0,4.3-.17,4.99-4.47,5.33-4.82.52-9.8.86-14.62.86-18.4,0-19.09-8.6-19.09-24.94v-44.2c-9.46,0-8.77.69-8.77-8.6,0-4.99,5.5-3.96,8.77-3.96v-16.17c0-3.78.69-4.64,4.47-4.64h7.57c2.75,0,3.78,2.24,3.78,4.64v16.17h17.88c5.33,0,4.82,1.89,4.82,6.36s.17,6.19-4.82,6.19Z"/><path class="cls-3" d="M206.59,373.71c-11.52,0-16.51,1.2-26.14,7.39v54c0,3.1-.34,4.99-3.78,4.99h-6.53c-4.81,0-6.02.17-6.02-4.99v-70.33c0-3.78.69-4.64,4.47-4.64h8.08c4.47,0,3.78,5.16,3.78,8.25,7.22-5.16,15.99-9.29,24.94-9.29,6.02,0,4.47,4.99,4.47,9.29,0,2.58,0,5.33-3.27,5.33Z"/><path class="cls-3" d="M272.11,440.09c-7.22,0-5.85-2.41-5.85-8.6-8.08,6.02-17.54,10.83-27.86,10.83-15.48,0-21.32-9.11-21.32-23.73,0-9.97,2.58-19.78,12.55-23.73,8.94-3.61,27-3.96,36.63-4.13,0-3.96-.34-12.04-1.72-15.48-1.55-3.61-6.02-4.82-9.63-4.82-8.77,0-17.88,2.41-26.31,4.47-.69.17-1.38.34-2.06.34-3.27,0-2.24-7.57-2.24-9.63,0-2.24,0-3.78,2.41-4.47,6.19-1.72,20.98-3.44,27.51-3.44,25.11,0,27.86,12.38,27.86,34.22v43.16c0,6.71-4.13,4.99-9.97,4.99ZM266.26,403.46c-3.78-.17-7.74-.34-11.52-.34-5.5,0-17.54-.52-20.98,4.99-1.38,2.41-1.55,5.85-1.55,8.6,0,6.36.69,13.41,8.6,13.41s19.6-6.02,25.45-11.01v-15.65Z"/><path class="cls-3" d="M350.69,440.09c-5.16,0-5.85-.17-5.85-5.5-7.57,4.3-15.82,7.91-24.59,7.91-22.36,0-27.86-21.15-27.86-39.72,0-23.04,6.36-44.88,33.36-44.88,6.36,0,12.9.86,19.09,2.06v-30.09c0-3.96.69-4.64,4.47-4.64h7.57c2.75,0,3.78,2.24,3.78,4.64v105.24c0,6.71-4.13,4.99-9.97,4.99ZM344.85,374.05c-6.36-1.72-13.07-3.1-19.6-3.1-3.27,0-5.68.17-8.43,1.89-8.08,4.82-8.43,23.73-8.43,31.81,0,5.67.34,14.62,3.78,19.43,2.58,3.61,7.22,5.68,11.52,5.68,7.39,0,15.82-4.82,21.15-9.63v-46.09Z"/><path class="cls-3" d="M389.38,347.06h-6.71c-4.64,0-5.85,0-5.85-4.99v-6.19c0-3.78.69-4.64,4.47-4.64h8.08c2.75,0,3.78,2.24,3.78,4.64v6.19c0,3.1-.34,4.99-3.78,4.99ZM389.38,440.09h-6.71c-4.64,0-5.85,0-5.85-4.99v-70.33c0-3.78.69-4.64,4.47-4.64h8.08c2.75,0,3.78,2.24,3.78,4.64v70.33c0,3.1-.34,4.99-3.78,4.99Z"/><path class="cls-3" d="M467.8,405.35h-44.02c0,15.65-.34,24.25,18.23,24.25,6.02,0,12.04-.86,18.06-2.06,2.75-.69,6.02-1.89,8.77-1.89,1.89,0,1.89,7.57,1.89,9.29,0,3.44-.17,4.13-3.61,4.99-8.08,1.89-17.02,2.41-25.28,2.41s-20.29-1.72-26.48-8.43c-7.22-7.74-7.57-23.39-7.57-33.36,0-26.14,2.58-42.99,33.36-42.99,28.03,0,30.78,16.17,30.78,39.9,0,3.96.86,7.91-4.13,7.91ZM441.15,370.61c-15.31,0-17.37,4.81-17.37,19.26v3.44h32.85c.17-2.58.17-5.16.17-7.74,0-12.21-3.78-14.96-15.65-14.96Z"/><path class="cls-3" d="M534.01,441.64c-4.64.52-9.46.69-14.1.69-6.88,0-15.31-.34-21.67-3.1-14.45-6.02-14.1-25.97-14.1-39.21,0-7.91.17-16.17,2.06-23.9,4.47-17.37,18.06-18.57,33.71-18.57,4.64,0,9.46.34,14.1.86,2.92.34,6.88-.34,6.88,3.44,0,2.75,0,5.85-.69,8.6-.34,1.55-.69,2.58-2.41,2.58-2.24,0-4.64-.34-7.05-.69-5.33-.69-10.66-1.38-15.99-1.38-4.3,0-9.29.52-11.69,4.47-2.58,4.13-2.58,19.26-2.58,24.59,0,5.68,0,11.52.52,17.2.86,9.29,4.64,11.69,13.76,11.69,5.33,0,10.83-.69,16.16-1.38,2.24-.34,4.64-.69,6.88-.69.69,0,1.38.17,1.72.69,1.03,1.2,1.38,8.77,1.38,10.49,0,3.78-3.96,3.27-6.88,3.61Z"/><path class="cls-3" d="M583.88,442.33c-27.86,0-36.11-17.02-36.11-42.3s8.08-42.48,36.11-42.48,36.11,17.37,36.11,42.48-8.43,42.3-36.11,42.3ZM600.56,377.84c-3.78-7.05-9.29-7.22-16.68-7.22s-12.9.17-16.68,7.22c-3.1,6.02-3.44,15.48-3.44,22.18s.34,16.17,3.44,22.18c3.61,7.05,9.46,7.05,16.68,7.05s13.07-.17,16.68-7.05c3.1-5.85,3.44-15.65,3.44-22.18s-.34-16.17-3.44-22.18Z"/><path class="cls-3" d="M673.64,373.71c-11.52,0-16.51,1.2-26.14,7.39v54c0,3.1-.34,4.99-3.78,4.99h-6.53c-4.81,0-6.02.17-6.02-4.99v-70.33c0-3.78.69-4.64,4.47-4.64h8.08c4.47,0,3.78,5.16,3.78,8.25,7.22-5.16,15.99-9.29,24.94-9.29,6.02,0,4.47,4.99,4.47,9.29,0,2.58,0,5.33-3.27,5.33Z"/><path class="cls-3" d="M741.57,405.35h-44.02c0,15.65-.34,24.25,18.23,24.25,6.02,0,12.04-.86,18.06-2.06,2.75-.69,6.02-1.89,8.77-1.89,1.89,0,1.89,7.57,1.89,9.29,0,3.44-.17,4.13-3.61,4.99-8.08,1.89-17.02,2.41-25.28,2.41s-20.29-1.72-26.48-8.43c-7.22-7.74-7.57-23.39-7.57-33.36,0-26.14,2.58-42.99,33.36-42.99,28.03,0,30.78,16.17,30.78,39.9,0,3.96.86,7.91-4.13,7.91ZM714.91,370.61c-15.31,0-17.37,4.81-17.37,19.26v3.44h32.85c.17-2.58.17-5.16.17-7.74,0-12.21-3.78-14.96-15.65-14.96Z"/></svg>